<mxfile host="app.diagrams.net" modified="2023-04-30T11:51:23.602Z" agent="Mozilla/5.0 (Windows NT 10.0; Win64; x64) AppleWebKit/537.36 (KHTML, like Gecko) Chrome/112.0.0.0 Safari/537.36" version="21.2.3" etag="FIglTi868KjENyb2M3KS" type="github">
  <diagram name="Halaman-1" id="7XEZD0ZEMAp4Q3DztDCG">
    <mxGraphModel>
      <root>
        <mxCell id="0" />
        <mxCell id="1" parent="0" />
      </root>
    </mxGraphModel>
  </diagram>
</mxfile>
